<svg width="81" height="27" viewBox="0 0 81 27" fill="none" xmlns="http://www.w3.org/2000/svg">
<path d="M18.2832 26H0.740234V22.5195L9.01953 13.6953C10.1562 12.4531 10.9941 11.3691 11.5332 10.4434C12.084 9.51758 12.3594 8.63867 12.3594 7.80664C12.3594 6.66992 12.0723 5.7793 11.498 5.13477C10.9238 4.47852 10.1035 4.15039 9.03711 4.15039C7.88867 4.15039 6.98047 4.54883 6.3125 5.3457C5.65625 6.13086 5.32812 7.16797 5.32812 8.45703H0.230469C0.230469 6.89844 0.599609 5.47461 1.33789 4.18555C2.08789 2.89648 3.14258 1.88867 4.50195 1.16211C5.86133 0.423828 7.40234 0.0546875 9.125 0.0546875C11.7617 0.0546875 13.8066 0.6875 15.2598 1.95312C16.7246 3.21875 17.457 5.00586 17.457 7.31445C17.457 8.58008 17.1289 9.86914 16.4727 11.1816C15.8164 12.4941 14.6914 14.0234 13.0977 15.7695L7.2793 21.9043H18.2832V26ZM38.6387 15.418C38.6387 18.957 37.9062 21.6641 36.4414 23.5391C34.9766 25.4141 32.832 26.3516 30.0078 26.3516C27.2188 26.3516 25.0859 25.4316 23.6094 23.5918C22.1328 21.752 21.377 19.1152 21.3418 15.6816V10.9707C21.3418 7.39648 22.0801 4.68359 23.5566 2.83203C25.0449 0.980469 27.1836 0.0546875 29.9727 0.0546875C32.7617 0.0546875 34.8945 0.974609 36.3711 2.81445C37.8477 4.64258 38.6035 7.27344 38.6387 10.707V15.418ZM33.5586 10.25C33.5586 8.12891 33.2656 6.58789 32.6797 5.62695C32.1055 4.6543 31.2031 4.16797 29.9727 4.16797C28.7773 4.16797 27.8926 4.63086 27.3184 5.55664C26.7559 6.4707 26.457 7.90625 26.4219 9.86328V16.0859C26.4219 18.1719 26.7031 19.7246 27.2656 20.7441C27.8398 21.752 28.7539 22.2559 30.0078 22.2559C31.25 22.2559 32.1465 21.7695 32.6973 20.7969C33.248 19.8242 33.5352 18.3359 33.5586 16.332V10.25ZM59.627 26H42.084V22.5195L50.3633 13.6953C51.5 12.4531 52.3379 11.3691 52.877 10.4434C53.4277 9.51758 53.7031 8.63867 53.7031 7.80664C53.7031 6.66992 53.416 5.7793 52.8418 5.13477C52.2676 4.47852 51.4473 4.15039 50.3809 4.15039C49.2324 4.15039 48.3242 4.54883 47.6562 5.3457C47 6.13086 46.6719 7.16797 46.6719 8.45703H41.5742C41.5742 6.89844 41.9434 5.47461 42.6816 4.18555C43.4316 2.89648 44.4863 1.88867 45.8457 1.16211C47.2051 0.423828 48.7461 0.0546875 50.4688 0.0546875C53.1055 0.0546875 55.1504 0.6875 56.6035 1.95312C58.0684 3.21875 58.8008 5.00586 58.8008 7.31445C58.8008 8.58008 58.4727 9.86914 57.8164 11.1816C57.1602 12.4941 56.0352 14.0234 54.4414 15.7695L48.623 21.9043H59.627V26ZM80.2988 26H62.7559V22.5195L71.0352 13.6953C72.1719 12.4531 73.0098 11.3691 73.5488 10.4434C74.0996 9.51758 74.375 8.63867 74.375 7.80664C74.375 6.66992 74.0879 5.7793 73.5137 5.13477C72.9395 4.47852 72.1191 4.15039 71.0527 4.15039C69.9043 4.15039 68.9961 4.54883 68.3281 5.3457C67.6719 6.13086 67.3438 7.16797 67.3438 8.45703H62.2461C62.2461 6.89844 62.6152 5.47461 63.3535 4.18555C64.1035 2.89648 65.1582 1.88867 66.5176 1.16211C67.877 0.423828 69.418 0.0546875 71.1406 0.0546875C73.7773 0.0546875 75.8223 0.6875 77.2754 1.95312C78.7402 3.21875 79.4727 5.00586 79.4727 7.31445C79.4727 8.58008 79.1445 9.86914 78.4883 11.1816C77.832 12.4941 76.707 14.0234 75.1133 15.7695L69.2949 21.9043H80.2988V26Z" fill="url(#paint0_diamond_36_157)"/>
<defs>
<radialGradient id="paint0_diamond_36_157" cx="0" cy="0" r="1" gradientUnits="userSpaceOnUse" gradientTransform="translate(13.5 26) rotate(92.1693) scale(66.0473 130.522)">
<stop stop-color="#F7589A"/>
<stop offset="1" stop-color="#34116D"/>
</radialGradient>
</defs>
</svg>
