<svg id="Слой_1" data-name="Слой 1" xmlns="http://www.w3.org/2000/svg" viewBox="0 0 1080 1080"><defs><style>.cls-1{fill:#352767;}.cls-2{fill:#fff;}.cls-3{fill:#c41738;}.cls-4{fill:#2a2458;}.cls-5{fill:#fefeff;}.cls-6{fill:#e41928;}.cls-7{fill:#8d1449;}.cls-8{fill:#c6b0d6;}.cls-9{fill:#fefefe;}.cls-10{fill:#7f66aa;}.cls-11{fill:#c31738;}.cls-12{fill:#c5b0d6;}.cls-13{fill:#fdfcfe;}.cls-14{fill:#c5afd6;}.cls-15{fill:#cc6ba7;}.cls-16{fill:#fcfcfd;}.cls-17{fill:#f7f6fb;}.cls-18{fill:#c3add4;}.cls-19{fill:#a78ec2;}.cls-20{fill:#7f65aa;}.cls-21{fill:#c5afd5;}.cls-22{fill:#fbfbfd;}.cls-23{fill:#fbfafd;}.cls-24{fill:#c4aed4;}.cls-25{fill:#fcfbfd;}.cls-26{fill:#c4aed5;}.cls-27{fill:#c1aad3;}.cls-28{fill:#c1abd3;}.cls-29{fill:#f2eff7;}.cls-30{fill:#a88ec2;}.cls-31{fill:#a88fc3;}.cls-32{fill:#bba4cf;}.cls-33{fill:#a58ac0;}.cls-34{fill:#7c62a7;}.cls-35{fill:#63519d;}.cls-36{fill:#8a6cad;}.cls-37{fill:#503b8e;}.cls-38{fill:#7b368c;}.cls-39{fill:#a61740;}.cls-40{fill:#9a1645;}.cls-41{fill:#487abd;}</style></defs><path class="cls-1" d="M645.14,320c26.09-3,35.43,7.62,31.35,34.23-.81,5.28-4.76,10.68,2.68,16.13,42.07,30.82,42.45,32.71,27.82,84,39.81,4.94,79.31,10.86,117.44,23.48,28.61,9.46,56.44,20.77,81.7,37.3,29.11,19,37.32,48.72,37.45,81.15,0,11.87-8.77,12.78-17.93,8.33A128.47,128.47,0,0,0,880.94,592c-22.87-2.12-41.37,5.86-50.4,27.47-12.95,30.94-37.18,39.48-67.43,37-28.41-2.34-51.77,4.57-71.54,27.08-21.86,24.89-74.34,34.2-104.31,22.29-9.26-3.68-10.65-13.91-17.87-19-4.7,4.54-4.28,10.16-3.91,15.72,3.4,51.15,6.26,102.33,6.52,153.62,0,7.58,2.11,12.06,9.93,14.84a53.6,53.6,0,0,1,25.22,18.59c13.48,18.12,8.51,39.89-13,45.57-38.11,10.08-77,11.94-115.16-1-17.14-5.82-27.45-18.56-31.16-36.24-5.61-26.78-7.15-54.07-9.75-81.23q-1.19-12.48-2.39-25c-.47-4.92,0-9.85-7.64-10.19-8-.36-7.48,4.91-8,9.67-3,27.68-6,55.36-8.7,83.07-4.27,43.25-8.49,58.39-66.64,65.69a209.64,209.64,0,0,1-69.8-2.64c-15.18-3.21-27.13-10.42-29.27-27.61-2.05-16.44,7.2-27.91,20.47-33C283.76,870,286.3,859.59,284,842.66c-5.57-41.53-4-83.46-3.7-125.26.11-12.53-1.5-18.55-17.22-18-34,1.18-56.35-30.42-51.36-69,3.57-27.55,14.74-52.28,28.26-76.11a486.17,486.17,0,0,1,51.69-73.76c5.81-6.87,6.05-10.71-1.45-17.15-22.24-19.07-39.76-42.09-50.46-69.64-2.94-7.58-7-12.24-15.35-12.47a13.26,13.26,0,0,1-4.81-1.3c-34.62-15.47-28.92-46.58-28.42-75.11.45-25.71,12.53-42.21,34.45-47,8.27-1.81,11.85-5.34,15.2-12.61C275.65,169.64,335.12,128.25,418,128.33s142.14,41.86,176.92,117.3c3.24,7,6.25,10.95,14.75,12.62,19.26,3.78,31.66,18.9,34,38.55C644.61,304.48,644.68,312.25,645.14,320Z"/><path class="cls-2" d="M585,441.42c4.34,9.72,7.21,20.36,15.16,29.1,6.13,6.35,7.78,7.27,14.48,12.33,10.5,7.43,20.19,10.65,30.52,15.52,1.56,9.11-5.67,12.57-11.25,16.65-23.23,17-48.43,29.64-77.21,34.34-5.92,1-12.18,1.23-17.51,4.59-.27,5.24,6,6.78,6,11.56,11.1,11.19,8.33,26.73,12.41,40.12,1.56,5.13-3.62,6.28-7.08,7.54-27.65,10.08-56.53,10.88-85.47,11.16-6.52.07-8.32-4.25-9.07-9.7-2.63-19-14.83-25.51-32.64-26.24-30-1.22-60-3.12-89.95-5.13a50.6,50.6,0,0,0-18.07,1.68c-11.86,3.48-16.9-.89-15.33-13.25,1.41-11,3-22,4.56-33-.27-4.75,1.67-12.05-3.51-13.57-2.33,8.58-5.17,17.07-6.85,25.78-2.41,12.48-4,21.91-21.17,25.09-18,3.35-23.32,22.3-25.69,39.39a101,101,0,0,0,3.37,43c3.4,8-1.78,8.68-7.16,7.58-11.51-2.34-19.82-8.67-22.51-20.81-2.43-21.8,5.11-41.6,13.83-60.62A386.24,386.24,0,0,1,293,494.33c6.87-3.87,11.74.71,16.55,4.26,82.86,61.17,198.86,42.7,263.74-47.33C576.29,447.07,577.46,440.33,585,441.42Z"/><path class="cls-2" d="M558.51,675.77c-5.65,33.93,1.77,67.57,2.21,101.36.38,28.9,7.32,23.43-24.32,32.21-24.37,6.76-49.07,8.77-74.18,3.32-10-2.16-14.85-6.13-15.8-17.33-1.92-22.47-1.94-45.35-8.83-67.82-4.38,3.73-2.49,8-3.54,11.57-.84,8.55-4.07,14-14.05,14.48a203.1,203.1,0,0,1-101.18-20.73c-12.4-6.07-20.57-16.42-28.55-27.06-2.93-7.32-10-16.77-3.95-22.12,6.33-5.55,16.47-1.57,23.51,5,1.92,1.79,4.83,2.53,7.29,3.76,14.32,5.17,29.58,4.52,44.34,6,18.71,1.83,37.61,1.29,56.45,3.52,16.71,2,32.78-.47,37.18-21.65,1.37-6.61,7-7.94,13-8,27.2-.26,54.45.91,81.41-4.43C554.27,666.89,562.24,665.52,558.51,675.77Z"/><path class="cls-3" d="M813.31,629.16c-6.09,10.29-15.36,15.44-27,16.65-47,6.47-89.92-2-127.52-33-19-15.73-42.39-23.67-65.77-30.88-4.73-1.94-9.77-2.76-14.71-3.94-5.46-2-11.82-1.63-16.29-6.2.28-4.54,4.25-4.76,7.16-5.53,30.48-8.1,57.3-23.36,82.55-41.76,6.77-3.82,13.73-3.18,21-1.36,54.54,13.7,98.76,44,136.66,84.56C815.4,614.23,816.09,621.24,813.31,629.16Z"/><path class="cls-4" d="M280.24,367.45c7.92.41,8.94,7.52,11.71,12.56,18.51,33.61,49.62,50.89,83.47,64.43,37.21,14.89,76,22.48,116,23.6,3.94.11,7.81.15,10.52,3.67h-.13c-28.4,3.71-55.44,14.34-84.92,13.62-26.34-.64-51.66-4.81-77-11.23-79.54-20.21-108-81.61-109.13-150.38-.34-21.35,9.87-59.25,29.77-72-1.53,20,2.86,38,3.67,56.47,4.44,4.49,3.82,10.33,4.29,15.89.08,6.26-.05,12.53,0,18.79-.07,6.6-.74,13.24,1.2,19.72,1.27,4.08,1,8.42,2.05,12.75C274.72,372.69,274.54,366.86,280.24,367.45Z"/><path class="cls-2" d="M525.08,869.67c21.92-.19,43.12,3,62.24,14.59,6.18,3.76,12.11,7.88,14.68,15.19,4.19,10-1.29,15-9.82,16.84-34.06,7.27-68.15,8.42-101.68-2.75-15.11-5-26.72-15.86-30.15-30.95-4.65-20.44-13.2-41.08-5.61-62.82,36.09,5.15,71.54,2.73,108.13-11.16,0,16.53-.28,30.91.12,45.27.19,7.17-.43,11.17-9.63,10.55s-18.79,1.39-28.15,2.25Z"/><path class="cls-2" d="M256.69,913.27c-6.17-13.36,1.95-20.87,11.59-27.34,19.48-13.07,41.75-16.26,68.81-16.83A76.06,76.06,0,0,0,303.88,864c-5.6.27-9.51-.27-9.9-7.48-.7-13.19-2.25-26.34-3.59-41.16,26.95,10.51,52.95,15.34,79.95,13.68,23.67-2.87,25.31-1.54,25.63,21.16.12,7.78.13,15.55-1.18,23.28C391,895.8,379.45,910.84,356.74,917c-29,7.85-57.94,9.73-87.37,3.58C264.32,919.51,259.89,917.48,256.69,913.27Z"/><path class="cls-5" d="M652.12,397.79c1.41-2.86,4.27-5.2,2.49-10.23-9,4.23-15,11.1-19,19.93-2.29,18.48,16.79,38.57,39.49,42,5.38.81,11-1.49,16.2,1.35-4.48,21.13-23,40-39.85,41-12.24-1.2-22.06-8.07-32.4-13.74a81.39,81.39,0,0,1-15.8-13.38,14.46,14.46,0,0,1-2-2.53c-14-22.85-9-42.34,8.29-62.73,13.56-16,22.19-35.82,30.89-55.13,3.67-8.16,7.76-18.45,18.52-15.61,11.69,3.1,12.2,15.4,8.35,23.72-7.87,17-1.38,24.23,14.09,29.64,7.75,2.7,14.43,8.78,19.06,15.83,7.27,11.07,9.67,22.42-2.15,32.51C672.8,438.08,648.37,420.85,652.12,397.79Z"/><path class="cls-3" d="M562,571.79c5.54.72,11.7-2,16.5,2.92,2,4.59,7.08,2.77,10.23,5,37.53,14.58,66.15,38.7,80.83,77,4.94,12.91,7,26.27-7.12,35.89-22.11,11.18-45.75,8.16-68.43,4.69-17.88-2.74-27.87-35.55-16.94-50.34,8.49-11.47,9.65-24.61,0-33.32C563.73,601.58,563.88,586.81,562,571.79Z"/><path class="cls-6" d="M929.82,569.65l.48,11.55c4.47,4.34,5.92,9.31,3.18,15.16-21.52-14.65-42.59-30-64.64-43.81C817.67,520.52,762,501,701.78,494.6a81.46,81.46,0,0,1-8.23-1.31c-2.15-.46-4.23-1.22-8.42-2.46l13.52-19.08c16.57-5.38,32.86-.4,48.91,2.3a476.18,476.18,0,0,1,131.36,41.83C903.16,527.75,921.84,543.2,929.82,569.65Z"/><path class="cls-7" d="M813.31,629.16C814.9,613,801.78,605.93,792.6,597c-34.78-34-74.88-59-122.84-70-5.9-1.35-12-1.67-18.07-2.47l17.37-16a419,419,0,0,1,182,60.86c4.87,3,12,4.25,11.78,12.31C837.27,588,825.13,608.42,813.31,629.16Z"/><path class="cls-8" d="M585,441.42c-17.23,18.47-29.59,40.79-50.49,56.61-70,53.05-160,54.63-230,2.31-3.56-2.65-6.67-6-11.54-6,7-14.86,14.74-16.82,30.26-7.78,49,28.57,100.88,30.64,155.87,16.21,40-10.49,72.95-28.29,98.28-60.62,1.49-1.9,3-4.94,6.52-3.54a2.07,2.07,0,0,1,.9,1.18A6.76,6.76,0,0,1,585,441.42Z"/><path class="cls-9" d="M540.87,187.49c-89.09-34.19-175-29.64-258.55,16.17,1.66-21.11,60-56,97.38-62.94Q472.63,123.47,540.87,187.49Z"/><path class="cls-10" d="M265.38,344.42A133.21,133.21,0,0,1,264,324c-.28-7.44.06-2.1.07-18.1,2.38-25.35,21.11-39.61,41.79-51.47,30.73-17.63,63.73-26.27,100.45-24.56-67.86,21.75-106,69.67-125.27,134.72a39.79,39.79,0,0,1-2.12,5.6l-6.39,13.5"/><path class="cls-7" d="M662.42,692.63c8.2-10.8,8-22.32,3.36-34.46-14.56-38.44-44.37-60.75-80.45-76.53-.27-6.19,3-5.07,6.66-3.24A147.3,147.3,0,0,1,658.3,607C692.43,633,728.89,650,773,645.47c4.36-.45,8.83.2,13.25.34-14.37,6.23-29.46,2.72-44.12,2.54-18.95-.25-34.44,5.38-47.44,19.25C685.34,677.59,676.38,688.43,662.42,692.63Z"/><path class="cls-5" d="M384.12,819.14c-27.77,6.65-54.56,2.11-81.21-6.43-10-3.21-14.56-8.74-12.62-19.19-2.55-14.9-.72-29.92-1.12-44.88-.22-8.28,5.2-8.77,9.3-4.1C315.92,764.42,339.74,774,362,786.41,373.83,793,387.57,801,384.12,819.14Z"/><path class="cls-11" d="M862.86,581.64c-55.52-35.75-115.3-60-181.46-66.8-5.11-.53-10-.68-12.34-6.37,4.5-5.74,10.11-7.62,17.54-6.8,74.33,8.15,142.8,31.69,203.3,76.52.63,3.4-.39,5.15-4.16,4.16Z"/><path class="cls-12" d="M256.69,913.27a202.12,202.12,0,0,0,98.51-.57c23.88-6,32.84-22.46,35.62-44.46.69-5.49-.17-11.19.67-16.64,2.57-16.77-3.2-25.23-21.14-22.53,36.11-9.6,36.21-9.59,33.91,26.22-.6,9.41-2,18.78-3.14,28.16-3.45,29.49-11.45,38.94-40.13,45.1-27.53,5.91-55.36,5.3-82.91.35C269.19,927.31,259.15,924.81,256.69,913.27Z"/><path class="cls-8" d="M454.74,819.77c-.89,20.2,3,40,8.48,59,8.61,29.85,35,34.8,61,37.06A261.1,261.1,0,0,0,589.05,913c7.88-1.29,14-3.92,13-13.57,7.84,13.55,2.07,23.58-10.76,26.94-36.49,9.55-73.53,11.08-109.84-1-15.49-5.17-23.62-18.25-26-34-2.2-14.78-3-29.76-4.45-44.66-1-7.26-2.06-17-2.4-20.52C448.09,820.35,449.16,818.49,454.74,819.77Z"/><path class="cls-5" d="M257.8,641.63c-3.66-16.32-2.42-32.22,6.14-46.69,8.89-15,20-16.12,32.54-4,12.7,12.25,15.29,27.7,13.82,44.39-2.91,11.74-8.95,20.3-22.22,20.85C275.51,656.66,263.3,656,257.8,641.63Z"/><path class="cls-13" d="M358.05,662.06c-.09-4.47-2.21-16-7.8-21.58-12.24-12.3-8.16-26.76-7-41,.55-6.75,5-5.79,9.61-5.51,12.24.75,24.5,1.19,36.75,1.8,29.78,1.49,34.05,6.9,28.43,36-1.13,6.05-5.44.35-8-1-1.83-1.21-3.63-2.49-5.54-3.61-9.22-4.09-18.37-6.77-27.27.67-5.29,5.78-7,12.13-3.11,19.39,2.13,3.37,5,6.3,5.57,10.5,0,2.82-1,5.14-3.53,6.61C369.74,666.86,363.58,667,358.05,662.06Z"/><path class="cls-14" d="M290.27,705.77c35.85,34.56,80.22,43.77,128,43.84,8.78,0,13.1-3.14,15.78-10.53,1.67,36.25,1.2,36.49-34.94,31.84-24.84-3.2-49.19-7.73-71-21C310.69,739.34,296.43,726,290.27,705.77Z"/><path class="cls-14" d="M384.12,819.14c-4.67-16.83-16.94-27.45-31.87-33.55-22.83-9.31-43.41-21-62-40.57,0,16.16,0,40.49,0,56.66-3.4-20.78-2.65-49.73-1.17-74,31.21,37.29,70.49,49.69,114,52.14,6.81.39,7.88,3.69,8,9.65C411.64,812.93,408.3,816.83,384.12,819.14Z"/><path class="cls-15" d="M929.82,569.65c-37.38-62.73-104-70.95-165.57-87.78-21.2-5.8-43.7-6.88-65.6-10.12.85-7.95,6.39-7.72,12.28-7.16,68.19,6.5,133.5,22.69,192.15,59.53C919.17,534.23,928.41,550.07,929.82,569.65Z"/><path class="cls-16" d="M448.26,641.66c.74-8.79,7-8.16,13.36-8.27C496,632.78,530,632,562.94,618.89c11.39-4.51,12.29,7.28,9.07,16.48-10.17,10.67-23.69,14.5-37.4,16.25-22,2.8-44.08,4.61-66.34,1.94C459.5,652.51,451.72,651.06,448.26,641.66Z"/><path class="cls-17" d="M293.68,210.17c26.66-19.82,58-27.26,89.78-32.17,37.68-5.81,75.32-4.38,112.38,5.67,13,3.53,24.74,9.62,36.27,17.43-80-24.63-158.28-22.18-234.88,11.87A4.88,4.88,0,0,1,293.68,210.17Z"/><path class="cls-18" d="M558.51,675.77c-.66-4.26-2.87-5.12-7-4.07-26.27,6.64-53.06,3.65-79.66,3.7-8.24,0-13.4.69-14.12,11.06-.84,12.14-9.09,19.56-21.28,19-36-1.71-71.93-4.26-107.87-6.75a16.65,16.65,0,0,1-11.44-6.26c31.6,1.58,63.25,2.66,94.81,4.92,25.5,1.82,30.58-.15,40-23.68,3.13-7.76,8.41-5.73,13.58-5.5,31.75,1.41,63.26.54,94.15-9.81C561.76,664.82,563.29,670.48,558.51,675.77Z"/><path class="cls-19" d="M524.33,467.84c-62.24,44.3-127.26,44.47-194,9.83,18.79,3.48,37.45,8.36,56.41,10.07a317.82,317.82,0,0,0,58.2,0c19.24-1.82,37.68-5.06,55.88-13.21,1-.39.65-.32,2.54-1.17,7.37-2.61,12.53-5.74,18.73-8.61.85-.73,1.27-.86,1.85-.51C525.57,465.19,525,466.55,524.33,467.84Z"/><path class="cls-20" d="M565.68,334.07c-.25,17.7-11.61,33.23-24.23,33.1-11.06-.12-20.16-13.17-19.82-28.44.4-18,11.79-32,25.45-31.45C558.83,307.79,565.9,318,565.68,334.07Z"/><path class="cls-21" d="M545.24,565.51c-3.37-1.88-7-3.43-10-5.74-2.86-2.18-7.39-4.23-5.41-9,1.54-3.67,5.67-2.43,8.8-2.73,34.95-3.25,66-16.38,94.19-36.88,4.84-3.53,10.29-6.59,12.38-12.82,5.14-.25,9.83,1.1,15.46,4.65-21.93,22.37-47.92,37.19-76.39,48.12C571.31,556.11,558.25,560.73,545.24,565.51Z"/><path class="cls-22" d="M200.85,330.7c-.06-10.58-.73-21.21,0-31.75,1.19-18.09,12.19-29.17,31.56-31.53-7.08,26.46-7.39,53-5.69,79.58C211.8,351.52,205.51,342.4,200.85,330.7Z"/><path class="cls-23" d="M609.05,346.8c.52-26,2-52.09-6-77.47,28.31-3.82,38.57,30.59,28.85,67.58C625.92,344,619.91,351,609.05,346.8Z"/><path class="cls-24" d="M413.05,629.5l3.75,1.71a2.29,2.29,0,0,1,1.32,1.92,83.67,83.67,0,0,1,.38,8.51C417,687.09,417,686,373.19,685.88c-20,0-16.1-11.08-15.26-21.78.09-1.16.1-2.39,1.27-2.41,5.69-.1,12.33.12,18,0,.51,0,.9-.37,1.38-.5a98.49,98.49,0,0,1,17.94-3.63c6.65-.31,9.88-4.68,12.1-10.24,3.08-5.22-1.23-11.53,1.44-16.79A2.27,2.27,0,0,1,413.05,629.5Z"/><path class="cls-25" d="M317.38,655.17c3.32-17.53,4.72-35-1.95-52.15-3.1-8,2.65-10.12,8.26-10.55,4.69-.36,14-2.87,12.23,5.71-4.41,21.8,4.82,45.56,13.3,54.89.46.51,1.4,4.23,1,8.83C333.69,670,324.43,668.1,317.38,655.17Z"/><path class="cls-18" d="M448.26,641.66c11.86,12.63,28.68,9,42.16,8.93,27.6-.22,56.29-.25,81.59-15.22-6.35,14.08-20.12,16.33-32.69,19.31-26.21,6.23-53,4.36-79.66,3.85C447.64,658.3,446.19,651.24,448.26,641.66Z"/><path class="cls-26" d="M257.8,641.63c22.22,17.33,36.71,15.58,52.5-6.35-1.53,14.63-.25,31.8-18.14,37C271.63,678.27,260.46,667.31,257.8,641.63Z"/><path class="cls-27" d="M221.08,645.18c6,8,13,14.65,23.1,17.47,4.43,1.24,6.07-.2,6.57-4.24,5.9,11.11,14.61,20.16,23.1,29.83C242,698.38,221.91,672.53,221.08,645.18Z"/><path class="cls-28" d="M651.41,491.78c18.3-6.74,27.42-22.86,40.06-38.55-24.84,3.48-41.26-7.6-54.06-25.07-4.42-6-9.48-13.07-1.84-20.67.76,21.51,16.14,30.22,33,37.65,6.74,2.49,13.73.8,20.59,1.2,5.7.34,9.65,1.62,6.52,8.52-4.4,10.78-11.35,20-17.79,29.57C670.84,494.91,662.53,497.6,651.41,491.78Z"/><path class="cls-26" d="M317.38,655.17c9.25,10.59,21.55,6.27,32.88,6.73-.77,7.14,4.91,18.3-4.51,20.24-10.75,2.2-24.56,4.4-33.52-3.87C303.81,670.49,316.57,663.26,317.38,655.17Z"/><path class="cls-29" d="M428.2,651.61c.58-15.89,3-32.13-.63-48.18-1.72-7.51,4.14-5,7.14-4.21,10.83,2.93,16.28,17.93,9.29,29a39.51,39.51,0,0,0-6.29,23.52C434.49,655,431.32,654.82,428.2,651.61Z"/><path class="cls-30" d="M200.85,330.7c6.92,8.12,14.74,14.81,25.84,16.31a59.94,59.94,0,0,1,1.8,6.38c1.09,6.26,5.77,15.23.18,18.16-6.06,3.18-13.08-3.55-18.24-8.76C201.54,353.8,199.22,342.84,200.85,330.7Z"/><path class="cls-31" d="M652.12,397.79c2.52,20.69,15.77,30,46.19,32.58-11.58,10.43-26.27,9.74-40.87-2.13C646.94,419.7,640.24,410.32,652.12,397.79Z"/><path class="cls-32" d="M428.2,651.61l9.51.17c11.41,23.11,6.84,34.42-16.83,36.62C426.36,676.24,426.17,663.77,428.2,651.61Z"/><path class="cls-33" d="M609.05,346.8l22.84-9.89c-1.35,11.26-6.57,21.18-13.23,29.74-3.37,4.34-7.65,8-12.12,6.65-7.76-2.29-2.2-8.33-1-12.27C607,356.49,607.8,351.54,609.05,346.8Z"/><path class="cls-34" d="M516.85,381.51c7.61,1.73,11.52,6.21,11.46,14.07-.06,8.83-5.21,13.94-13.18,14.05-7,.1-10.28-5.68-10.37-12.65C504.65,388.62,508.79,383.53,516.85,381.51Z"/><path class="cls-35" d="M594.29,404.16c-1-1.35-1.68-1.82-1.65-2.22.69-8.23,2.47-16,10.78-20,.89-.44,4,1.24,4,1.7C606.34,392.61,601.2,398.82,594.29,404.16Z"/><path class="cls-36" d="M695.66,454.86c-.35-5.82-4.16-6.25-8.89-6.29-6.21-.07-12.92,1.74-18.22-3.43,7.7,0,15.4-.06,23.1-.13C701.31,444.92,700.34,449.13,695.66,454.86Z"/><path class="cls-1" d="M301.09,525.15a65.07,65.07,0,0,0,2.15-7.28s2.85,3.42,3,5.41c.32,4.18.23,5.64-1.64,15.44C302.24,534.51,306.23,528.65,301.09,525.15Z"/><path class="cls-1" d="M525.13,869.67c-6.54,0-9.28.7-21,2.05,9.35-4.81,29.26-5.84,35.32-6.73C539.37,866,525.17,868.67,525.13,869.67Z"/><path class="cls-37" d="M590.8,412.64c-.95,2-2.12,4.44-5.23,4.24-.47,0-1.46-2.57-1.05-3.31a9.37,9.37,0,0,1,4-4.17C590,408.77,591.25,410.26,590.8,412.64Z"/><path class="cls-38" d="M933.48,596.36,930.3,581.2C939.79,584.49,938,590.14,933.48,596.36Z"/><path class="cls-2" d="M303.68,203.42c1.18.94-7.63,8.61-6.45,9.55l-9.56,5.66c-1.61-1.56-2.33-3.5-.33-5S301.27,204.44,303.68,203.42Z"/><path class="cls-17" d="M287.34,213.66c.11,1.66.22,3.32.32,5a44,44,0,0,1-7.23,3.51S283.79,215.39,287.34,213.66Z"/><path class="cls-39" d="M885.74,582.35l4.16-4.16c3,1,5.77,2.29,7.21,5.59C892.88,586.14,889.25,584.76,885.74,582.35Z"/><path class="cls-19" d="M530.2,461.26s-7.78,11.14-9.29,6C520,464.1,530.2,461.26,530.2,461.26Z"/><path class="cls-40" d="M592,578.4c-2.65.21-5.23.55-6.66,3.25l-10.79-4.95,3.94-2C583.05,575.7,588.4,573.83,592,578.4Z"/><path class="cls-1" d="M374.92,625.51c11.34-8.79,22.2-10.36,32.16,2.08a5.76,5.76,0,0,1-2.46,3.39,25.49,25.49,0,0,1-8.18,3.08c-5.3.35-9.94-2.64-15.11-3C378.24,630.31,375.73,628.88,374.92,625.51Z"/><path class="cls-1" d="M377.1,657.31a22,22,0,0,1-6.93-8.17,7.72,7.72,0,0,1,4.78-5.07c9.26,2.18,17.83-6.8,27.3-1.73,2.24,5.47.05,9.86-3.41,13.94C391.89,658.48,385.12,664.32,377.1,657.31Z"/><path class="cls-1" d="M374.53,645.75c-1.35,1.15-3,2.25-4.36,3.39-4.81-9.16-2.25-16.84,4.75-23.63l5.65,3.23C382.11,635.77,378.64,640.85,374.53,645.75Z"/><path class="cls-1" d="M405.63,628.75c.52-.6.38-.83.8-1.51a7.23,7.23,0,0,1,5.72,2,84.83,84.83,0,0,1-.26,19.83c-1.45,1-3.13,1.59-4.57.56C404.67,643.88,402.67,635.12,405.63,628.75Z"/><path class="cls-1" d="M380.67,657.41c5.87,1.65,11.26-3,17-2.77a2.44,2.44,0,0,0,.59-.07,3.9,3.9,0,0,1,3.41.61,2.06,2.06,0,0,1,.64.82,4.43,4.43,0,0,1-.65,4.85,2.1,2.1,0,0,1-1.61.73l-19.92.11a2.15,2.15,0,0,1-2.16-2.14v-.06A2.12,2.12,0,0,1,380.67,657.41Z"/><path class="cls-1" d="M401,661.58c.06-2,.13-4,.19-6,.79-3.92,3-6.32,7.12-6.77l3.61.35C410.94,655.63,407.5,660,401,661.58Z"/><path class="cls-41" d="M374.75,645.48c-.56-6.66.15-12.42,5.83-16.74,7.29-6.2,10.84,5.43,17.21,3.63,8.79.35,5.24,5,3.12,9.07C392.34,644.91,385.07,652.94,374.75,645.48Z"/><path class="cls-1" d="M400.91,641.44c-.36-3.26.69-7-3.12-9.08,1.32-3.3,4.24-3.45,7.16-3.61,3.25,6.32,2.91,13.23,3.32,20-2.36,2.26-4.74,4.51-7.11,6.77a13.45,13.45,0,0,1-3.17-.88Q399.46,648,400.91,641.44Z"/><ellipse class="cls-41" cx="388.94" cy="639.29" rx="16.15" ry="13.78"/></svg>