<svg width="291" height="156" viewBox="0 0 291 156" fill="none" xmlns="http://www.w3.org/2000/svg">
<g filter="url(#filter0_f_11_17)">
<path d="M200.524 77.2721C181.998 82.4341 203.239 115.247 221.27 121.933C238.242 128.225 277.754 117.536 264.498 105.211C258.167 99.3242 243.384 98.5612 243.384 98.5612C243.384 98.5612 272.849 94.5701 269.631 83.122C267.836 76.7362 256.941 71.8317 256.941 71.8317C256.941 71.8317 291.099 54.1005 279.571 49.4518C274.682 47.4799 266.073 49.6766 266.073 49.6766C266.073 49.6766 293.195 15.0905 280.838 5.42454C268.172 -4.48379 254.991 44.8605 254.991 44.8605C254.991 44.8605 249.354 32.9122 242.26 31.0706C229.358 27.7214 239.827 65.1158 239.827 65.1158C239.827 65.1158 226.023 54.4509 218.721 58.9665C209.209 64.8495 227.178 86.3294 227.178 86.3294C227.178 86.3294 211.114 74.3211 200.524 77.2721Z" fill="#F4F4F4"/>
<path d="M81.7794 93.3404C95.0016 101.871 70.4475 122.223 54.7376 123.03C39.9513 123.79 11.6726 105.844 25.0191 99.4857C31.3932 96.449 43.1283 99.458 43.1283 99.458C43.1283 99.458 21.0754 89.1725 26.3661 81.0501C29.3173 76.5195 39.0192 75.3589 39.0192 75.3589C39.0192 75.3589 16.6317 53.2399 26.7658 52.4324C31.0642 52.0899 37.2575 55.8968 37.2575 55.8968C37.2575 55.8968 24.4552 22.3795 36.4543 17.8708C48.7542 13.2491 47.084 54.8506 47.084 54.8506C47.084 54.8506 54.3863 46.9287 60.3759 47.2248C71.2686 47.7633 54.0197 74.3048 54.0197 74.3048C54.0197 74.3048 67.3917 69.3715 72.0011 74.664C78.0064 81.5591 58.757 93.8912 58.757 93.8912C58.757 93.8912 74.2207 88.4637 81.7794 93.3404Z" fill="#F4F4F4"/>
</g>
<path d="M64.5 123.512C64.5 123.512 64.1667 107.512 64.5 104.512M64.5 104.512C64.8333 101.512 66.3 94.3123 69.5 89.5123M64.5 104.512C64.3333 100.679 63.8 92.0123 63 88.0123M64.5 113.012C64 112.179 62.6 109.912 61 107.512" stroke="#919191"/>
<path d="M56.4999 108.512C58.0658 109.31 58.9998 109.512 60.9999 108.512C63 107.512 61 99.4122 53.9999 98.0123C46.9999 96.6123 41.2587 99.4393 42.9999 104.012C44.5427 108.064 50.6557 102.753 53.9999 105.512C55.1763 106.483 55.141 107.82 56.4999 108.512Z" fill="#685BB4"/>
<path d="M74.5 74.0123C69.7685 78.2626 65.5 86.5123 69.5 89.5123C73.5 92.5123 79.6293 88.0289 83.5 83.5123C87.0781 79.3371 89 71.5123 87.5 70.0123C86.0001 68.5123 78.4515 70.4626 74.5 74.0123Z" fill="#685BB4"/>
<path d="M54.5 75.5123C55.5528 81.3797 58.5 89.5123 62.5 88.5123C66.5 87.5123 65.7661 80.013 65 74.5123C64.1444 68.3691 62.5 60.5123 57.5 60.5123C52.5 60.5123 53.4449 69.6323 54.5 75.5123Z" fill="#3F3875"/>
<path d="M0 129C0 125.686 2.68629 123 6 123H285C288.314 123 291 125.686 291 129V150C291 153.314 288.314 156 285 156H6C2.68629 156 0 153.314 0 150V129Z" fill="#C4C4C4"/>
<defs>
<filter id="filter0_f_11_17" x="17.536" y="0.109741" width="270.529" height="127.684" filterUnits="userSpaceOnUse" color-interpolation-filters="sRGB">
<feFlood flood-opacity="0" result="BackgroundImageFix"/>
<feBlend mode="normal" in="SourceGraphic" in2="BackgroundImageFix" result="shape"/>
<feGaussianBlur stdDeviation="2" result="effect1_foregroundBlur_11_17"/>
</filter>
</defs>
</svg>
