<svg width="285" height="132" viewBox="0 0 285 132" fill="none" xmlns="http://www.w3.org/2000/svg">
<g filter="url(#filter0_f_3_108)">
<path d="M196.524 77.2721C177.998 82.4341 199.239 115.247 217.27 121.933C234.242 128.225 273.754 117.536 260.498 105.211C254.167 99.3242 239.384 98.5612 239.384 98.5612C239.384 98.5612 268.849 94.5701 265.631 83.122C263.836 76.7362 252.941 71.8317 252.941 71.8317C252.941 71.8317 287.099 54.1005 275.571 49.4518C270.682 47.4799 262.073 49.6766 262.073 49.6766C262.073 49.6766 289.195 15.0905 276.838 5.42454C264.172 -4.48379 250.991 44.8605 250.991 44.8605C250.991 44.8605 245.354 32.9122 238.26 31.0706C225.358 27.7214 235.827 65.1158 235.827 65.1158C235.827 65.1158 222.023 54.4509 214.721 58.9665C205.209 64.8495 223.178 86.3294 223.178 86.3294C223.178 86.3294 207.114 74.3211 196.524 77.2721Z" fill="#F4F4F4"/>
<path d="M77.7794 93.3404C91.0016 101.871 66.4475 122.223 50.7376 123.03C35.9513 123.79 7.67265 105.844 21.0191 99.4857C27.3932 96.449 39.1283 99.458 39.1283 99.458C39.1283 99.458 17.0754 89.1725 22.3661 81.0501C25.3173 76.5195 35.0192 75.3589 35.0192 75.3589C35.0192 75.3589 12.6317 53.2399 22.7658 52.4324C27.0642 52.0899 33.2575 55.8968 33.2575 55.8968C33.2575 55.8968 20.4552 22.3795 32.4543 17.8708C44.7542 13.2491 43.084 54.8506 43.084 54.8506C43.084 54.8506 50.3863 46.9287 56.3759 47.2248C67.2686 47.7633 50.0197 74.3048 50.0197 74.3048C50.0197 74.3048 63.3917 69.3715 68.0011 74.664C74.0064 81.5591 54.757 93.8912 54.757 93.8912C54.757 93.8912 70.2207 88.4637 77.7794 93.3404Z" fill="#F4F4F4"/>
</g>
<path d="M60.5 123.512C60.5 123.512 60.1667 107.512 60.5 104.512M60.5 104.512C60.8333 101.512 62.3 94.3123 65.5 89.5123M60.5 104.512C60.3333 100.679 59.8 92.0123 59 88.0123M60.5 113.012C60 112.179 58.6 109.912 57 107.512" stroke="#919191"/>
<path d="M52.4999 108.512C54.0658 109.31 54.9998 109.512 56.9999 108.512C59 107.512 57 99.4122 49.9999 98.0123C42.9999 96.6123 37.2587 99.4393 38.9999 104.012C40.5427 108.064 46.6557 102.753 49.9999 105.512C51.1763 106.483 51.141 107.82 52.4999 108.512Z" fill="#685BB4"/>
<path d="M70.5 74.0123C65.7685 78.2626 61.5 86.5123 65.5 89.5123C69.5 92.5123 75.6293 88.0289 79.5 83.5123C83.0781 79.3371 85 71.5123 83.5 70.0123C82.0001 68.5123 74.4515 70.4626 70.5 74.0123Z" fill="#685BB4"/>
<path d="M50.5 75.5123C51.5528 81.3797 54.5 89.5123 58.5 88.5123C62.5 87.5123 61.7661 80.013 61 74.5123C60.1444 68.3691 58.5 60.5123 53.5 60.5123C48.5 60.5123 49.4449 69.6323 50.5 75.5123Z" fill="#3F3875"/>
<defs>
<filter id="filter0_f_3_108" x="13.536" y="0.109741" width="270.529" height="127.684" filterUnits="userSpaceOnUse" color-interpolation-filters="sRGB">
<feFlood flood-opacity="0" result="BackgroundImageFix"/>
<feBlend mode="normal" in="SourceGraphic" in2="BackgroundImageFix" result="shape"/>
<feGaussianBlur stdDeviation="2" result="effect1_foregroundBlur_3_108"/>
</filter>
</defs>
</svg>
