<svg width="52" height="55" viewBox="0 0 52 55" fill="none" xmlns="http://www.w3.org/2000/svg">
<path d="M26.5 54C10 53.5 1.00002 45.5 1 33.5C0.999979 17.8715 13.5 1 24.5 1C35.5 0.999997 51.5 15.5 51.5 35.5C51.5 47.0434 43 54.5 26.5 54Z" fill="#E3E1F7" stroke="#E3E1F7"/>
<path d="M14.5 22.913C14.5 21.5323 15.6193 20.413 17 20.413H33.8261C35.2068 20.413 36.3261 21.5323 36.3261 22.913V39.7391C36.3261 41.1198 35.2068 42.2391 33.8261 42.2391H17C15.6193 42.2391 14.5 41.1198 14.5 39.7391V22.913Z" fill="#7667D4" stroke="#5746C0"/>
<path d="M14.5 23C14.5 23 14.5 18.5 16 18C17.5 17.5 34.5 18 34.5 18" stroke="#5746C0" stroke-linecap="round" stroke-linejoin="round"/>
<path d="M18.3478 24.2608L18.3478 39.4782" stroke="#5746C0" stroke-linecap="round" stroke-linejoin="round"/>
<circle cx="31.9348" cy="38.9347" r="7.06522" fill="#FFAA16"/>
<circle cx="31.9348" cy="38.9347" r="6.56522" fill="#FFD4AD" stroke="#5746C0"/>
<circle cx="31.9348" cy="38.9348" r="2.21739" fill="#FFAA16" stroke="#5746C0"/>
</svg>
