<svg width="46" height="46" viewBox="0 0 46 46" fill="none" xmlns="http://www.w3.org/2000/svg">
<path d="M0 12C0 5.37258 5.37258 0 12 0H34C40.6274 0 46 5.37258 46 12V34C46 40.6274 40.6274 46 34 46H12C5.37258 46 0 40.6274 0 34V12Z" fill="#FFF1D7"/>
<rect x="13" y="17" width="20" height="6" fill="#FFAA16"/>
<rect x="13.5" y="22.5" width="6" height="10" stroke="#FFAA16"/>
<rect x="26.5" y="22.5" width="6" height="10" stroke="#FFAA16"/>
<path d="M13.5 27.5H32.5" stroke="#FFAA16"/>
<rect x="19.5" y="13.5" width="7" height="4" fill="#FFAA16" stroke="#FFAA16"/>
<rect x="14" y="18" width="5" height="4" fill="#FFD4AD"/>
<rect x="27" y="18" width="5" height="4" fill="#FFD4AD"/>
<path d="M20.5 21V15L23 17.5L25.5 15V21" stroke="#E3E1F7"/>
</svg>
