<svg width="52" height="55" viewBox="0 0 52 55" fill="none" xmlns="http://www.w3.org/2000/svg">
<path d="M26.5 54C10 53.5 1.00002 45.5 1 33.5C0.999979 17.8715 13.5 1 24.5 1C35.5 0.999997 51.5 15.5 51.5 35.5C51.5 47.0434 43 54.5 26.5 54Z" fill="#E3E1F7" stroke="#E3E1F7"/>
<mask id="mask0_27_2" style="mask-type:alpha" maskUnits="userSpaceOnUse" x="0" y="0" width="52" height="55">
<path d="M26.5 54C10 53.5 1.00002 45.5 1 33.5C0.999979 17.8715 13.5 1 24.5 1C35.5 0.999997 51.5 15.5 51.5 35.5C51.5 47.0434 43 54.5 26.5 54Z" fill="#E3E1F7" stroke="#E3E1F7"/>
</mask>
<g mask="url(#mask0_27_2)">
<path d="M42.8111 55.4554C30.9776 57.7002 21.8335 58.4485 10 50.9657C10.3586 45.9771 12.4743 36 18.0683 36H34.7428C44.9627 36 42.8111 55.4554 42.8111 55.4554Z" fill="#5747C0" stroke="#5747C0" stroke-linecap="round" stroke-linejoin="round"/>
<path d="M26 31.375C16.5 31.375 18.5 36.375 18.5 36.375H34.5C34.5 36.375 35.5 31.375 26 31.375Z" fill="#5747C0" stroke="#5747C0" stroke-linecap="round" stroke-linejoin="round"/>
<path d="M22.5 33.875L20.5 34.875L24 39.375V42.375M29.5 33.875L33 34.875L29 39.375V42.375" stroke="#E3E1F7" stroke-linecap="round" stroke-linejoin="round"/>
<path d="M26 32C23.5 32 22.0384 33.8284 19.5 35C19.5 35 21.0487 36.4311 22 38.5C22.4393 39.4554 23.5 42.5 23.5 42.5C23.5 42.5 25.1901 44 26.5 44C27.8099 44 29.5 42.5 29.5 42.5C29.5 42.5 29.8241 41.5 30 40.5C30.4129 38.1526 33 35 33 35C33 35 28.5 32 26 32Z" fill="#E6E5F9" stroke="#E6E5F9" stroke-linecap="round" stroke-linejoin="round"/>
<path d="M22.5 30.875H30.5V36.875C30.5 38.5319 29.1569 39.875 27.5 39.875H25.5C23.8431 39.875 22.5 38.5319 22.5 36.875V30.875Z" fill="#FFC140"/>
<path d="M19.5 19.875C19.5 18.2181 20.8431 16.875 22.5 16.875H29.5C31.1569 16.875 32.5 18.2181 32.5 19.875V27.875C32.5 31.1887 29.8137 33.875 26.5 33.875H25.5C22.1863 33.875 19.5 31.1887 19.5 27.875V19.875Z" fill="#FFC140"/>
<path d="M26.5 48V45.375M26.5 45.375H28M26.5 45.375H25M26.5 45.375V44.5" stroke="#271E7E" stroke-width="2" stroke-linecap="round" stroke-linejoin="round"/>
<path d="M34 24.875C33.2863 24.5578 32 24.875 32 24.875V29.375C32 29.375 35.7574 25.656 34 24.875Z" fill="#FFC140" stroke="#FFC140" stroke-linecap="round" stroke-linejoin="round"/>
<path d="M30 23.5C28 21.5 30.0313 19.8152 31.5 19C34.5778 17.2917 34.3905 25.7662 33 29C32.3365 30.5431 30.7509 31.8371 30.5 32.5C30.249 33.1629 30.5 37.5 30.5 37.5C30.5 37.5 29.7409 38.6295 29 39C28.259 39.3705 29 35 29 35C29 35 26.5 35 26.5 34.5C26.5 33 27.8512 33.2659 29 32.5C30.4999 31.5 32.0615 25.5616 30 23.5Z" fill="#FFA41C"/>
<path d="M18.4681 24.875C19.1818 24.5578 20.4681 24.875 20.4681 24.875V29.375C20.4681 29.375 16.7107 25.656 18.4681 24.875Z" fill="#FFC140" stroke="#FFC140" stroke-linecap="round" stroke-linejoin="round"/>
<path d="M19.5 25C19.5 25 19.3905 25.1561 19 24.375C18 22.375 19 16.875 19 16.875C19 16.875 19.6193 14.6511 21 14.375C23.5 13.875 28 13.875 32 14.375C33.4884 14.5611 34 16.875 34 16.875C34 16.875 35 21.375 33.5 24.375C32.9408 25.4933 32.5 25 32.5 25C32.5 25 33.4405 19.4483 30.5 18.375C29.3994 17.9733 28.5362 17.8284 27.5 18.375C26.0244 19.1534 26 19.375 26 19.375C26 19.375 25.9332 19.2289 24.5 18.375C23.3257 17.6754 22.2225 17.7637 21 18.375C18.5549 19.5975 19.5 25 19.5 25Z" fill="#000827" stroke="#000827" stroke-linecap="round" stroke-linejoin="round"/>
</g>
</svg>
