<svg width="51" height="54" viewBox="0 0 51 54" fill="none" xmlns="http://www.w3.org/2000/svg">
<mask id="mask0_5_304" style="mask-type:alpha" maskUnits="userSpaceOnUse" x="-1" y="-1" width="52" height="55">
<path d="M25.5 53C9 52.5 1.62721e-05 44.5 0 32.5C-2.11923e-05 16.8715 12.5 2.62819e-06 23.5 0C34.5 -2.62819e-06 50.5 14.5 50.5 34.5C50.5 46.0434 42 53.5 25.5 53Z" fill="#E3E1F7" stroke="#E3E1F7"/>
</mask>
<g mask="url(#mask0_5_304)">
<path d="M41.8111 54.4554C29.9776 56.7002 20.8335 57.4485 9 49.9657C9.35859 44.9771 11.4743 35 17.0683 35H33.7428C43.9627 35 41.8111 54.4554 41.8111 54.4554Z" fill="#5747C0" stroke="#5747C0" stroke-linecap="round" stroke-linejoin="round"/>
<path d="M25 30.375C15.5 30.375 17.5 35.375 17.5 35.375H33.5C33.5 35.375 34.5 30.375 25 30.375Z" fill="#5747C0" stroke="#5747C0" stroke-linecap="round" stroke-linejoin="round"/>
<path d="M21.5 32.875L19.5 33.875L23 38.375V41.375M28.5 32.875L32 33.875L28 38.375V41.375" stroke="#E3E1F7" stroke-linecap="round" stroke-linejoin="round"/>
<path d="M25 31C22.5 31 21.0384 32.8284 18.5 34C18.5 34 20.0487 35.4311 21 37.5C21.4393 38.4554 22.5 41.5 22.5 41.5C22.5 41.5 24.1901 43 25.5 43C26.8099 43 28.5 41.5 28.5 41.5C28.5 41.5 28.8241 40.5 29 39.5C29.4129 37.1526 32 34 32 34C32 34 27.5 31 25 31Z" fill="#E6E5F9" stroke="#E6E5F9" stroke-linecap="round" stroke-linejoin="round"/>
<path d="M21.5 29.875H29.5V35.875C29.5 37.5319 28.1569 38.875 26.5 38.875H24.5C22.8431 38.875 21.5 37.5319 21.5 35.875V29.875Z" fill="#FFC140"/>
<path d="M18.5 18.875C18.5 17.2181 19.8431 15.875 21.5 15.875H28.5C30.1569 15.875 31.5 17.2181 31.5 18.875V26.875C31.5 30.1887 28.8137 32.875 25.5 32.875H24.5C21.1863 32.875 18.5 30.1887 18.5 26.875V18.875Z" fill="#FFC140"/>
<path d="M25.5 47V44.375M25.5 44.375H27M25.5 44.375H24M25.5 44.375V43.5" stroke="#271E7E" stroke-width="2" stroke-linecap="round" stroke-linejoin="round"/>
<path d="M33 23.875C32.2863 23.5578 31 23.875 31 23.875V28.375C31 28.375 34.7574 24.656 33 23.875Z" fill="#FFC140" stroke="#FFC140" stroke-linecap="round" stroke-linejoin="round"/>
<path d="M29 22.5C27 20.5 29.0313 18.8152 30.5 18C33.5778 16.2917 33.3905 24.7662 32 28C31.3365 29.5431 29.7509 30.8371 29.5 31.5C29.249 32.1629 29.5 36.5 29.5 36.5C29.5 36.5 28.7409 37.6295 28 38C27.259 38.3705 28 34 28 34C28 34 25.5 34 25.5 33.5C25.5 32 26.8512 32.2659 28 31.5C29.4999 30.5 31.0615 24.5616 29 22.5Z" fill="#FFA41C"/>
<path d="M17.4681 23.875C18.1818 23.5578 19.4681 23.875 19.4681 23.875V28.375C19.4681 28.375 15.7107 24.656 17.4681 23.875Z" fill="#FFC140" stroke="#FFC140" stroke-linecap="round" stroke-linejoin="round"/>
<path d="M18.5 24C18.5 24 18.3905 24.1561 18 23.375C17 21.375 18 15.875 18 15.875C18 15.875 18.6193 13.6511 20 13.375C22.5 12.875 27 12.875 31 13.375C32.4884 13.5611 33 15.875 33 15.875C33 15.875 34 20.375 32.5 23.375C31.9408 24.4933 31.5 24 31.5 24C31.5 24 32.4405 18.4483 29.5 17.375C28.3994 16.9733 27.5362 16.8284 26.5 17.375C25.0244 18.1534 25 18.375 25 18.375C25 18.375 24.9332 18.2289 23.5 17.375C22.3257 16.6754 21.2225 16.7637 20 17.375C17.5549 18.5975 18.5 24 18.5 24Z" fill="#000827" stroke="#000827" stroke-linecap="round" stroke-linejoin="round"/>
</g>
</svg>
