<svg width="52" height="55" viewBox="0 0 52 55" fill="none" xmlns="http://www.w3.org/2000/svg">
<path d="M26.5 54C10 53.5 1.00002 45.5 1 33.5C0.999979 17.8715 13.5 1 24.5 1C35.5 0.999997 51.5 15.5 51.5 35.5C51.5 47.0434 43 54.5 26.5 54Z" fill="#E3E1F7" stroke="#E3E1F7"/>
<path d="M14.5 17C14.5 15.6193 15.6193 14.5 17 14.5H28C29.3807 14.5 30.5 15.6193 30.5 17V41C30.5 42.3807 29.3807 43.5 28 43.5H17C15.6193 43.5 14.5 42.3807 14.5 41V17Z" fill="#7667D4" stroke="#5746C0"/>
<path d="M28 39C28.8 39.8 30.6667 38.6667 31.5 38C32.3333 37.3333 34.5 38.5 34.5 38.5C36.5 39 38.5 36.5 38.5 36.5C38.5 36.5 39.5 35 39.5 33.5C39.5 32 38.5 28 37 27C35.5 26 30.3333 26.5 27.5 27C27.3333 26.6667 26.8 25.7 26 24.5C25 23 21.5 24 19.5 24.5C17.5 25 19 27 19.5 28.5C20 30 22.5 28.5 23.5 29C24.5 29.5 27 38 28 39Z" fill="#E7E5F8" stroke="#E7E5F8" stroke-linecap="round" stroke-linejoin="round"/>
<path d="M17 19V41" stroke="#5746C0" stroke-linecap="round" stroke-linejoin="round"/>
<path d="M21 26.2157C21 26.2157 22.361 25.7303 23.5078 26.2157C24.8666 26.7909 25.3887 28.3744 25.3887 28.3744M25.3887 28.3744C25.3887 28.3744 32.2853 28.3744 34.7931 28.9911C37.3009 29.6079 36.9875 33 36.9875 33H26.6426L25.3887 28.3744Z" stroke="#5746C0" stroke-width="2" stroke-linecap="round" stroke-linejoin="round"/>
<circle cx="29.5" cy="36.5" r="1.5" fill="#5746C0"/>
<circle cx="34.5" cy="36.5" r="1.5" fill="#5746C0"/>
<path d="M21 39C21 38.4477 21.4477 38 22 38H23C23.5523 38 24 38.4477 24 39V40C24 40.5523 23.5523 41 23 41H22C21.4477 41 21 40.5523 21 40V39Z" fill="#E7E5F8"/>
</svg>
