<svg width="26" height="30" viewBox="0 0 26 30" fill="none" xmlns="http://www.w3.org/2000/svg">
<path d="M0.5 3C0.5 1.61929 1.61929 0.5 3 0.5H14C15.3807 0.5 16.5 1.61929 16.5 3V27C16.5 28.3807 15.3807 29.5 14 29.5H3C1.61929 29.5 0.5 28.3807 0.5 27V3Z" fill="#7667D4" stroke="#5746C0"/>
<path d="M14 25C14.8 25.8 16.6667 24.6667 17.5 24C18.3333 23.3333 20.5 24.5 20.5 24.5C22.5 25 24.5 22.5 24.5 22.5C24.5 22.5 25.5 21 25.5 19.5C25.5 18 24.5 14 23 13C21.5 12 16.3333 12.5 13.5 13C13.3333 12.6667 12.8 11.7 12 10.5C11 9 7.49999 10 5.49999 10.5C3.49999 11 4.99999 13 5.49999 14.5C5.99999 16 8.49999 14.5 9.49999 15C10.5 15.5 13 24 14 25Z" fill="#E7E5F8" stroke="#E7E5F8" stroke-linecap="round" stroke-linejoin="round"/>
<path d="M3 5V27" stroke="#5746C0" stroke-linecap="round" stroke-linejoin="round"/>
<path d="M7 12.2157C7 12.2157 8.36104 11.7303 9.50784 12.2157C10.8666 12.7909 11.3887 14.3744 11.3887 14.3744M11.3887 14.3744C11.3887 14.3744 18.2853 14.3744 20.7931 14.9911C23.3009 15.6079 22.9875 19 22.9875 19H12.6426L11.3887 14.3744Z" stroke="#5746C0" stroke-width="2" stroke-linecap="round" stroke-linejoin="round"/>
<circle cx="15.5" cy="22.5" r="1.5" fill="#5746C0"/>
<circle cx="20.5" cy="22.5" r="1.5" fill="#5746C0"/>
<path d="M7 25C7 24.4477 7.44772 24 8 24H9C9.55228 24 10 24.4477 10 25V26C10 26.5523 9.55228 27 9 27H8C7.44772 27 7 26.5523 7 26V25Z" fill="#E7E5F8"/>
</svg>
