<svg width="30" height="30" viewBox="0 0 30 30" fill="none" xmlns="http://www.w3.org/2000/svg">
<path d="M0.5 9.5C0.5 8.11929 1.61929 7 3 7H27C28.3807 7 29.5 8.11929 29.5 9.5V26.5C29.5 27.8807 28.3807 29 27 29H3C1.61929 29 0.5 27.8807 0.5 26.5V9.5Z" fill="#7667D4" stroke="#5746C0"/>
<path d="M15 1C16.5 1 26.5 7 26.5 7H19C19 7 12 1 12.5 1H15Z" fill="#7667D4" stroke="#5746C0" stroke-linejoin="round"/>
<path d="M3.5 10.5C3.5 10.2239 3.72386 10 4 10H26C26.2761 10 26.5 10.2239 26.5 10.5V16.5C26.5 16.7761 26.2761 17 26 17H4C3.72386 17 3.5 16.7761 3.5 16.5V10.5Z" fill="#FFD4AD" stroke="#FFA10F"/>
<circle cx="7.5" cy="23" r="2.5" fill="#5747C0"/>
<circle cx="21.5" cy="23" r="3.5" fill="#5747C0"/>
</svg>
