<svg width="52" height="55" viewBox="0 0 52 55" fill="none" xmlns="http://www.w3.org/2000/svg">
<path d="M26.5 54C10 53.5 1.00002 45.5 1 33.5C0.999979 17.8715 13.5 1 24.5 1C35.5 0.999997 51.5 15.5 51.5 35.5C51.5 47.0434 43 54.5 26.5 54Z" fill="#E3E1F7" stroke="#E3E1F7"/>
<path d="M11.5 22.5C11.5 21.1193 12.6193 20 14 20H38C39.3807 20 40.5 21.1193 40.5 22.5V39.5C40.5 40.8807 39.3807 42 38 42H14C12.6193 42 11.5 40.8807 11.5 39.5V22.5Z" fill="#7667D4" stroke="#5746C0"/>
<path d="M26 14C27.5 14 37.5 20 37.5 20H30C30 20 23 14 23.5 14H26Z" fill="#7667D4" stroke="#5746C0" stroke-linejoin="round"/>
<path d="M14.5 23.5C14.5 23.2239 14.7239 23 15 23H37C37.2761 23 37.5 23.2239 37.5 23.5V29.5C37.5 29.7761 37.2761 30 37 30H15C14.7239 30 14.5 29.7761 14.5 29.5V23.5Z" fill="#FFD4AD" stroke="#FFA10F"/>
<circle cx="18.5" cy="36" r="2.5" fill="#5747C0"/>
<circle cx="32.5" cy="36" r="3.5" fill="#5747C0"/>
</svg>
