<svg width="52" height="55" viewBox="0 0 52 55" fill="none" xmlns="http://www.w3.org/2000/svg">
<path d="M26.5 54C10 53.5 1.00002 45.5 1 33.5C0.999979 17.8715 13.5 1 24.5 1C35.5 0.999997 51.5 15.5 51.5 35.5C51.5 47.0434 43 54.5 26.5 54Z" fill="#E3E1F7" stroke="#E3E1F7"/>
<path d="M11.5 25C11.5 23.6193 12.6193 22.5 14 22.5H38C39.3807 22.5 40.5 23.6193 40.5 25V42C40.5 43.3807 39.3807 44.5 38 44.5H14C12.6193 44.5 11.5 43.3807 11.5 42V25Z" fill="#7667D4" stroke="#5746C0"/>
<path d="M14.5 28C14.5 26.6193 15.6193 25.5 17 25.5H35C36.3807 25.5 37.5 26.6193 37.5 28V38C37.5 39.3807 36.3807 40.5 35 40.5H17C15.6193 40.5 14.5 39.3807 14.5 38V28Z" fill="#5747C0" stroke="#5747C0"/>
<path d="M23 19.5C24.3668 20.6716 26.5 20 26.5 22.5" stroke="#5746C0" stroke-linejoin="round"/>
<path d="M32.5 19.5C31.1332 20.6716 29 20 29 22.5" stroke="#5746C0" stroke-linejoin="round"/>
<circle cx="22" cy="17" r="2.5" fill="#FFD4AD" stroke="#FFAA16"/>
<circle cx="33" cy="17" r="2.5" fill="#FFD4AD" stroke="#FFAA16"/>
</svg>
