<svg width="30" height="31" viewBox="0 0 30 31" fill="none" xmlns="http://www.w3.org/2000/svg">
<path d="M0.5 11C0.5 9.61929 1.61929 8.5 3 8.5H27C28.3807 8.5 29.5 9.61929 29.5 11V28C29.5 29.3807 28.3807 30.5 27 30.5H3C1.61929 30.5 0.5 29.3807 0.5 28V11Z" fill="#7667D4" stroke="#5746C0"/>
<path d="M3.5 14C3.5 12.6193 4.61929 11.5 6 11.5H24C25.3807 11.5 26.5 12.6193 26.5 14V24C26.5 25.3807 25.3807 26.5 24 26.5H6C4.61929 26.5 3.5 25.3807 3.5 24V14Z" fill="#5747C0" stroke="#5747C0"/>
<path d="M12 5.5C13.3668 6.67157 15.5 6 15.5 8.5" stroke="#5746C0" stroke-linejoin="round"/>
<path d="M21.5 5.5C20.1332 6.67157 18 6 18 8.5" stroke="#5746C0" stroke-linejoin="round"/>
<circle cx="11" cy="3" r="2.5" fill="#FFD4AD" stroke="#FFAA16"/>
<circle cx="22" cy="3" r="2.5" fill="#FFD4AD" stroke="#FFAA16"/>
</svg>
