<svg width="52" height="55" viewBox="0 0 52 55" fill="none" xmlns="http://www.w3.org/2000/svg">
<path d="M26.5 54C10 53.5 1.00002 45.5 1 33.5C0.999979 17.8715 13.5 1 24.5 1C35.5 0.999997 51.5 15.5 51.5 35.5C51.5 47.0434 43 54.5 26.5 54Z" fill="#E3E1F7" stroke="#E3E1F7"/>
<path d="M11.5 28C11.5 26.6193 12.6193 25.5 14 25.5H34C35.3807 25.5 36.5 26.6193 36.5 28V40C36.5 41.3807 35.3807 42.5 34 42.5H14C12.6193 42.5 11.5 41.3807 11.5 40V28Z" fill="#7667D4" stroke="#5746C0"/>
<circle cx="18" cy="20" r="6" fill="#5746C0"/>
<circle cx="18" cy="20" r="5" fill="#FFAA16"/>
<circle cx="18" cy="20" r="4" fill="#FFD4AD"/>
<circle cx="18" cy="20" r="2" fill="#FFAA16"/>
<circle cx="29" cy="20" r="6" fill="#5746C0"/>
<circle cx="29" cy="20" r="5" fill="#FFAA16"/>
<path d="M41.5 28L36.5 31.5V36L41.5 38.5H43.5V28H41.5Z" fill="#7667D4" stroke="#5746C0" stroke-linejoin="round"/>
<circle cx="29" cy="20" r="4" fill="#FFD4AD"/>
<circle cx="29" cy="20" r="2" fill="#FFAA16"/>
<path d="M15.5 31C15.5 29.6193 16.6193 28.5 18 28.5H19C20.3807 28.5 21.5 29.6193 21.5 31V37C21.5 38.3807 20.3807 39.5 19 39.5H18C16.6193 39.5 15.5 38.3807 15.5 37V31Z" stroke="#5747C0"/>
<path d="M26.5 34.5C26.5 33.3954 27.3954 32.5 28.5 32.5C29.6046 32.5 30.5 33.3954 30.5 34.5V37.5C30.5 38.6046 29.6046 39.5 28.5 39.5C27.3954 39.5 26.5 38.6046 26.5 37.5V34.5Z" stroke="#5747C0"/>
<path d="M15.5 31.5C15.5 31.5 17 33 18.5 33.5C20 34 21.5 35.5 21.5 35.5" stroke="#5747C0" stroke-linejoin="round"/>
<path d="M26.5 35C26.5 35 28 35.5 28.5 36.25C29 37 30.5 37.5 30.5 37.5" stroke="#5747C0" stroke-linejoin="round"/>
</svg>
